<?xml version="1.0" standalone="no"?>
<!DOCTYPE svg PUBLIC "-//W3C//DTD SVG 20010904//EN"
 "http://www.w3.org/TR/2001/REC-SVG-20010904/DTD/svg10.dtd">
<svg version="1.0" xmlns="http://www.w3.org/2000/svg"
 width="485.000000pt" height="444.000000pt" viewBox="0 0 485.000000 444.000000"
 preserveAspectRatio="xMidYMid meet">

<g transform="translate(0.000000,444.000000) scale(0.100000,-0.100000)"
fill="#000000" stroke="none">
<path d="M490 3825 l0 -545 1280 0 1280 0 0 -77 c-1 -172 -63 -297 -191 -382
-111 -74 -73 -72 -931 -71 l-768 0 0 -1295 0 -1295 145 0 145 0 0 1150 0 1149
653 3 652 3 77 26 c120 41 204 94 294 183 135 135 199 280 212 478 l7 107 52
-19 c181 -64 333 -222 400 -419 23 -65 27 -93 27 -191 0 -169 -31 -267 -131
-407 -54 -78 -144 -151 -241 -198 -130 -64 -140 -65 -814 -65 l-608 0 0 -900
0 -900 140 0 140 0 0 754 0 755 508 3 507 4 90 27 c334 103 562 328 662 654
24 80 27 103 27 258 1 194 -13 260 -84 413 -118 251 -365 453 -629 514 l-48
11 -11 96 c-45 385 -328 663 -722 711 -52 6 -471 10 -1102 10 l-1018 0 0 -545z
m2211 228 c129 -44 239 -137 295 -249 31 -63 54 -146 54 -196 l0 -38 -1135 0
-1135 0 0 255 0 256 928 -3 927 -3 66 -22z"/>
</g>
</svg>
