<?xml version="1.0" encoding="UTF-8" standalone="no"?>
<!-- Created with Inkscape (http://www.inkscape.org/) -->

<svg
   width="146mm"
   height="183mm"
   viewBox="0 0 146 183"
   version="1.1"
   id="svg1"
   inkscape:version="1.3.2 (091e20e, 2023-11-25, custom)"
   sodipodi:docname="PDDLogoSVG.svg"
   xmlns:inkscape="http://www.inkscape.org/namespaces/inkscape"
   xmlns:sodipodi="http://sodipodi.sourceforge.net/DTD/sodipodi-0.dtd"
   xmlns="http://www.w3.org/2000/svg"
   xmlns:svg="http://www.w3.org/2000/svg">
  <sodipodi:namedview
     id="namedview1"
     pagecolor="#ffffff"
     bordercolor="#000000"
     borderopacity="0.25"
     inkscape:showpageshadow="2"
     inkscape:pageopacity="0.0"
     inkscape:pagecheckerboard="0"
     inkscape:deskcolor="#d1d1d1"
     inkscape:document-units="mm"
     showgrid="true"
     inkscape:zoom="0.73139029"
     inkscape:cx="396.50513"
     inkscape:cy="451.87912"
     inkscape:window-width="1920"
     inkscape:window-height="1017"
     inkscape:window-x="1672"
     inkscape:window-y="-8"
     inkscape:window-maximized="1"
     inkscape:current-layer="layer1">
    <inkscape:grid
       id="grid1"
       units="mm"
       originx="0"
       originy="0"
       spacingx="0.99999998"
       spacingy="1"
       empcolor="#0099e5"
       empopacity="0.30196078"
       color="#0099e5"
       opacity="0.14901961"
       empspacing="5"
       dotted="false"
       gridanglex="30"
       gridanglez="30"
       visible="true" />
  </sodipodi:namedview>
  <defs
     id="defs1">
    <clipPath
       clipPathUnits="userSpaceOnUse"
       id="clipPath2">
      <path
         d="M 88.480003,167.52 V 955.03998 H 705.28003 V 167.52 Z"
         clip-rule="evenodd"
         id="path2" />
    </clipPath>
    <clipPath
       clipPathUnits="userSpaceOnUse"
       id="clipPath4">
      <path
         d="M 88.480003,167.52 V 955.03998 H 705.28003 V 167.52 Z"
         clip-rule="evenodd"
         id="path4" />
    </clipPath>
    <clipPath
       clipPathUnits="userSpaceOnUse"
       id="clipPath6">
      <path
         d="M 88.480003,167.52 V 955.03998 H 705.28003 V 167.52 Z"
         clip-rule="evenodd"
         id="path6" />
    </clipPath>
    <clipPath
       clipPathUnits="userSpaceOnUse"
       id="clipPath8">
      <path
         d="M 88.480003,167.52 V 955.03998 H 705.28003 V 167.52 Z"
         clip-rule="evenodd"
         id="path8" />
    </clipPath>
    <clipPath
       clipPathUnits="userSpaceOnUse"
       id="clipPath10">
      <path
         d="M 88.480003,167.52 V 955.03998 H 705.28003 V 167.52 Z"
         transform="translate(-444.32001,-477.12)"
         clip-rule="evenodd"
         id="path10" />
    </clipPath>
    <clipPath
       clipPathUnits="userSpaceOnUse"
       id="clipPath12">
      <path
         d="M 88.480003,167.52 V 955.03998 H 705.28003 V 167.52 Z"
         clip-rule="evenodd"
         id="path12" />
    </clipPath>
    <clipPath
       clipPathUnits="userSpaceOnUse"
       id="clipPath14">
      <path
         d="M 88.480003,167.52 V 955.03998 H 705.28003 V 167.52 Z"
         transform="translate(-520,-325.92002)"
         clip-rule="evenodd"
         id="path14" />
    </clipPath>
    <clipPath
       clipPathUnits="userSpaceOnUse"
       id="clipPath16">
      <path
         d="M 88.480003,167.52 V 955.03998 H 705.28003 V 167.52 Z"
         clip-rule="evenodd"
         id="path16" />
    </clipPath>
    <clipPath
       clipPathUnits="userSpaceOnUse"
       id="clipPath18">
      <path
         d="M 88.480003,167.52 V 955.03998 H 705.28003 V 167.52 Z"
         clip-rule="evenodd"
         id="path18" />
    </clipPath>
    <clipPath
       clipPathUnits="userSpaceOnUse"
       id="clipPath20">
      <path
         d="M 88.480003,167.52 V 955.03998 H 705.28003 V 167.52 Z"
         clip-rule="evenodd"
         id="path20" />
    </clipPath>
    <clipPath
       clipPathUnits="userSpaceOnUse"
       id="clipPath22">
      <path
         d="M 88.480003,167.52 V 955.03998 H 705.28003 V 167.52 Z"
         clip-rule="evenodd"
         id="path22" />
    </clipPath>
    <clipPath
       clipPathUnits="userSpaceOnUse"
       id="clipPath24">
      <path
         d="M 88.480003,167.52 V 955.03998 H 705.28003 V 167.52 Z"
         clip-rule="evenodd"
         id="path24" />
    </clipPath>
    <clipPath
       clipPathUnits="userSpaceOnUse"
       id="clipPath26">
      <path
         d="M 88.480003,167.52 V 955.03998 H 705.28003 V 167.52 Z"
         clip-rule="evenodd"
         id="path26" />
    </clipPath>
    <clipPath
       clipPathUnits="userSpaceOnUse"
       id="clipPath28">
      <path
         d="M 88.480003,167.52 V 955.03998 H 705.28003 V 167.52 Z"
         clip-rule="evenodd"
         id="path28" />
    </clipPath>
    <clipPath
       clipPathUnits="userSpaceOnUse"
       id="clipPath30">
      <path
         d="M 88.480003,167.52 V 955.03998 H 705.28003 V 167.52 Z"
         clip-rule="evenodd"
         id="path30" />
    </clipPath>
    <clipPath
       clipPathUnits="userSpaceOnUse"
       id="clipPath32">
      <path
         d="M 88.480003,167.52 V 955.03998 H 705.28003 V 167.52 Z"
         clip-rule="evenodd"
         id="path32" />
    </clipPath>
    <clipPath
       clipPathUnits="userSpaceOnUse"
       id="clipPath34">
      <path
         d="M 88.480003,167.52 V 955.03998 H 705.28003 V 167.52 Z"
         transform="translate(-482.07999,-325.92002)"
         clip-rule="evenodd"
         id="path34" />
    </clipPath>
    <clipPath
       clipPathUnits="userSpaceOnUse"
       id="clipPath36">
      <path
         d="M 88.480003,167.52 V 955.03998 H 705.28003 V 167.52 Z"
         transform="translate(-444.32001,-439.35999)"
         clip-rule="evenodd"
         id="path36" />
    </clipPath>
    <clipPath
       clipPathUnits="userSpaceOnUse"
       id="clipPath38">
      <path
         d="M 88.480003,167.52 V 955.03998 H 705.28003 V 167.52 Z"
         clip-rule="evenodd"
         id="path38" />
    </clipPath>
    <clipPath
       clipPathUnits="userSpaceOnUse"
       id="clipPath40">
      <path
         d="M 88.480003,167.52 V 955.03998 H 705.28003 V 167.52 Z"
         clip-rule="evenodd"
         id="path40" />
    </clipPath>
    <clipPath
       clipPathUnits="userSpaceOnUse"
       id="clipPath42">
      <path
         d="M 88.480003,167.52 V 955.03998 H 705.28003 V 167.52 Z"
         clip-rule="evenodd"
         id="path42" />
    </clipPath>
    <clipPath
       clipPathUnits="userSpaceOnUse"
       id="clipPath44">
      <path
         d="M 88.480003,167.52 V 955.03998 H 705.28003 V 167.52 Z"
         clip-rule="evenodd"
         id="path44" />
    </clipPath>
    <clipPath
       clipPathUnits="userSpaceOnUse"
       id="clipPath46">
      <path
         d="M 88.480003,167.52 V 955.03998 H 705.28003 V 167.52 Z"
         transform="translate(-179.67999,-382.72001)"
         clip-rule="evenodd"
         id="path46" />
    </clipPath>
    <clipPath
       clipPathUnits="userSpaceOnUse"
       id="clipPath48">
      <path
         d="M 88.480003,167.52 V 955.03998 H 705.28003 V 167.52 Z"
         clip-rule="evenodd"
         id="path48" />
    </clipPath>
    <clipPath
       clipPathUnits="userSpaceOnUse"
       id="clipPath50">
      <path
         d="M 88.480003,167.52 V 955.03998 H 705.28003 V 167.52 Z"
         transform="translate(-520,-533.76001)"
         clip-rule="evenodd"
         id="path50" />
    </clipPath>
    <clipPath
       clipPathUnits="userSpaceOnUse"
       id="clipPath52">
      <path
         d="M 88.480003,167.52 V 955.03998 H 705.28003 V 167.52 Z"
         clip-rule="evenodd"
         id="path52" />
    </clipPath>
    <clipPath
       clipPathUnits="userSpaceOnUse"
       id="clipPath54">
      <path
         d="M 88.480003,167.52 V 955.03998 H 705.28003 V 167.52 Z"
         transform="translate(-444.32001,-439.35999)"
         clip-rule="evenodd"
         id="path54" />
    </clipPath>
    <clipPath
       clipPathUnits="userSpaceOnUse"
       id="clipPath56">
      <path
         d="M 88.480003,167.52 V 955.03998 H 705.28003 V 167.52 Z"
         transform="translate(-387.67999,-571.68)"
         clip-rule="evenodd"
         id="path56" />
    </clipPath>
    <clipPath
       clipPathUnits="userSpaceOnUse"
       id="clipPath59">
      <path
         d="M 88.480003,167.52 V 955.03998 H 705.28003 V 167.52 Z"
         transform="translate(-196.96001,-860.78998)"
         clip-rule="evenodd"
         id="path59" />
    </clipPath>
    <clipPath
       clipPathUnits="userSpaceOnUse"
       id="clipPath61">
      <path
         d="M 88.480003,167.52 V 955.03998 H 705.28003 V 167.52 Z"
         transform="translate(-244.48,-872.15998)"
         clip-rule="evenodd"
         id="path61" />
    </clipPath>
    <clipPath
       clipPathUnits="userSpaceOnUse"
       id="clipPath63">
      <path
         d="M 88.480003,167.52 V 955.03998 H 705.28003 V 167.52 Z"
         transform="translate(-292.16,-843.52002)"
         clip-rule="evenodd"
         id="path63" />
    </clipPath>
    <clipPath
       clipPathUnits="userSpaceOnUse"
       id="clipPath65">
      <path
         d="M 88.480003,167.52 V 955.03998 H 705.28003 V 167.52 Z"
         transform="translate(-337.28,-872.15998)"
         clip-rule="evenodd"
         id="path65" />
    </clipPath>
    <clipPath
       clipPathUnits="userSpaceOnUse"
       id="clipPath67">
      <path
         d="M 88.480003,167.52 V 955.03998 H 705.28003 V 167.52 Z"
         clip-rule="evenodd"
         id="path67" />
    </clipPath>
    <clipPath
       clipPathUnits="userSpaceOnUse"
       id="clipPath69">
      <path
         d="M 88.480003,167.52 V 955.03998 H 705.28003 V 167.52 Z"
         transform="translate(-408,-869.15003)"
         clip-rule="evenodd"
         id="path69" />
    </clipPath>
    <clipPath
       clipPathUnits="userSpaceOnUse"
       id="clipPath71">
      <path
         d="M 88.480003,167.52 V 955.03998 H 705.28003 V 167.52 Z"
         transform="translate(-456.32001,-868.29999)"
         clip-rule="evenodd"
         id="path71" />
    </clipPath>
    <clipPath
       clipPathUnits="userSpaceOnUse"
       id="clipPath73">
      <path
         d="M 88.480003,167.52 V 955.03998 H 705.28003 V 167.52 Z"
         transform="translate(-501.92001,-858.27002)"
         clip-rule="evenodd"
         id="path73" />
    </clipPath>
    <clipPath
       clipPathUnits="userSpaceOnUse"
       id="clipPath75">
      <path
         d="M 88.480003,167.52 V 955.03998 H 705.28003 V 167.52 Z"
         transform="translate(-576.79999,-872.15998)"
         clip-rule="evenodd"
         id="path75" />
    </clipPath>
    <clipPath
       clipPathUnits="userSpaceOnUse"
       id="clipPath77">
      <path
         d="M 88.480003,167.52 V 955.03998 H 705.28003 V 167.52 Z"
         transform="translate(-624.32001,-894.71998)"
         clip-rule="evenodd"
         id="path77" />
    </clipPath>
    <clipPath
       clipPathUnits="userSpaceOnUse"
       id="clipPath79">
      <path
         d="M 88.480003,167.52 V 955.03998 H 705.28003 V 167.52 Z"
         transform="translate(-658.71997,-894.21998)"
         clip-rule="evenodd"
         id="path79" />
    </clipPath>
  </defs>
  <g
     inkscape:label="Warstwa 1"
     inkscape:groupmode="layer"
     id="layer1">
    <path
       id="path1"
       d="M 330.88,477.12 V 779.52002"
       style="fill:none;stroke:#000000;stroke-width:1.28;stroke-linecap:round;stroke-linejoin:round;stroke-miterlimit:10;stroke-dasharray:none;stroke-opacity:1"
       clip-path="url(#clipPath2)"
       transform="matrix(0.26458333,0,0,0.26458333,-33.623308,-61.933345)" />
    <path
       id="path3"
       d="M 330.88,477.12 H 444.32001"
       style="fill:none;stroke:#000000;stroke-width:1.28;stroke-linecap:round;stroke-linejoin:round;stroke-miterlimit:10;stroke-dasharray:none;stroke-opacity:1"
       clip-path="url(#clipPath4)"
       transform="matrix(0.26458333,0,0,0.26458333,-33.623308,-61.933345)" />
    <path
       id="path5"
       d="M 293.12,477.12 V 779.52002"
       style="fill:none;stroke:#000000;stroke-width:1.28;stroke-linecap:round;stroke-linejoin:round;stroke-miterlimit:10;stroke-dasharray:none;stroke-opacity:1"
       clip-path="url(#clipPath6)"
       transform="matrix(0.26458333,0,0,0.26458333,-33.623308,-61.933345)" />
    <path
       id="path7"
       d="M 293.12,439.35999 V 477.12"
       style="fill:none;stroke:#000000;stroke-width:1.28;stroke-linecap:round;stroke-linejoin:round;stroke-miterlimit:10;stroke-dasharray:none;stroke-opacity:1"
       clip-path="url(#clipPath8)"
       transform="matrix(0.26458333,0,0,0.26458333,-33.623308,-61.933345)" />
    <path
       id="path9"
       d="M 0,0 H 1.28 2.56 L 3.84,-0.16 H 5.12 L 6.4,-0.32 h 1.28 l 1.28,-0.16 1.28,-0.16 1.28,-0.16 1.28,-0.32 1.28,-0.16 1.28,-0.32 1.279999,-0.16 L 17.92,-2.08 19.200001,-2.4 20.48,-2.72 21.6,-3.2 22.879999,-3.52 24.16,-4 25.280001,-4.32 26.559999,-4.8 27.68,-5.28 28.959999,-5.76 30.08,-6.24 31.360001,-6.72 32.48,-7.36 33.599998,-7.84 34.720001,-8.48 36,-9.12 l 1.119999,-0.64 1.120003,-0.64 1.119999,-0.64 0.959999,-0.64 1.119999,-0.64 1.120002,-0.8 1.119999,-0.64 0.959999,-0.8 1.119999,-0.8 0.960003,-0.8 L 47.68,-16.959999 48.639999,-17.76 49.759998,-18.559999 50.720001,-19.52 51.68,-20.32 52.48,-21.280001 53.439999,-22.08 54.400002,-23.040001 55.200001,-24 56.16,-24.959999 56.959999,-25.92 57.759998,-26.879999 58.720001,-27.84 59.52,-28.959999 60.32,-29.92 60.959999,-30.879999 61.759998,-32 l 0.800003,-1.119999 0.64,-0.960003 0.639999,-1.119999 0.799999,-1.119999 0.64,-1.119999 0.639999,-1.120002 0.64,-1.119999 0.639999,-1.119999 0.480003,-1.119999 0.64,-1.120003 0.480003,-1.279999 0.479996,-1.119999 0.639999,-1.280002 0.480004,-1.119999 0.319999,-1.279999 0.479996,-1.120003 L 71.68,-51.52 72,-52.639999 l 0.480003,-1.279999 0.32,-1.280003 0.32,-1.279999 0.319999,-1.279998 0.32,-1.120003 0.32,-1.279999 0.159996,-1.279999 0.32,-1.280002 L 74.720001,-64 l 0.159996,-1.279999 0.160004,-1.279999 0.159996,-1.279998 0.160004,-1.280007 v -1.279999 L 75.519997,-71.68 v -1.279999 -1.279999 L 75.68,-75.519997"
       style="fill:none;stroke:#000000;stroke-width:1.28;stroke-linecap:round;stroke-linejoin:round;stroke-miterlimit:10;stroke-dasharray:none;stroke-opacity:1"
       transform="matrix(0.26458333,0,0,0.26458333,83.936355,64.304652)"
       clip-path="url(#clipPath10)" />
    <path
       id="path11"
       d="m 520,325.92001 v 75.68"
       style="fill:none;stroke:#000000;stroke-width:1.28;stroke-linecap:round;stroke-linejoin:round;stroke-miterlimit:10;stroke-dasharray:none;stroke-opacity:1"
       clip-path="url(#clipPath12)"
       transform="matrix(0.26458333,0,0,0.26458333,-33.623308,-61.933345)" />
    <path
       id="path13"
       d="M 0,0 -0.16,-1.28 V -2.56 -3.84 L -0.32,-5.12 V -6.4 l -0.16,-1.28 -0.16,-1.28 -0.16,-1.28 -0.16,-1.28 -0.16,-1.28 -0.32,-1.28 -0.16,-1.28 -0.32,-1.279999 L -2.24,-17.92 -2.56,-19.200001 -2.88,-20.32 -3.2,-21.6 -3.68,-22.879999 -4,-24 -4.48,-25.280001 -4.96,-26.559999 -5.28,-27.68 -5.76,-28.959999 -6.4,-30.08 -6.88,-31.200001 -7.36,-32.48 -8,-33.599998 -8.48,-34.720001 -9.12,-35.84 l -0.64,-1.119999 -0.64,-1.120003 -0.64,-1.119999 -0.8,-1.119999 -0.64,-1.119999 -0.64,-1.120002 -0.8,-0.959999 -0.8,-1.119999 -0.64,-0.959999 -0.8,-1.120003 L -16.959999,-47.68 -17.92,-48.639999 -18.719999,-49.599998 -19.52,-50.560001 -20.48,-51.52 -21.280001,-52.48 -22.24,-53.439999 -23.200001,-54.400002 -24,-55.200001 -24.959999,-56.16 -25.92,-56.959999 -27.040001,-57.759998 -28,-58.560001 l -0.959999,-0.8 L -29.92,-60.16 -31.040001,-60.959999 -32,-61.759998 l -1.119999,-0.640004 -1.120003,-0.799999 -1.119999,-0.639999 -0.959999,-0.640003 -1.119999,-0.799996 -1.120002,-0.639999 -1.119999,-0.64 -1.279999,-0.480003 -1.120003,-0.639999 -1.119999,-0.480004 -1.119999,-0.639999 -1.279998,-0.479996 -1.120003,-0.480003 L -48,-70.239998 -49.119999,-70.720001 -50.400002,-71.199997 -51.52,-71.68 -52.799999,-72 l -1.280003,-0.480003 -1.119999,-0.32 -1.279999,-0.32 -1.279998,-0.319999 -1.280003,-0.32 -1.279999,-0.159996 -1.279998,-0.32 -1.280003,-0.160004 -1.280003,-0.319999 -1.279998,-0.159996 -1.279999,-0.160004 L -68,-75.199997 l -1.279999,-0.160004 h -1.279999 l -1.279998,-0.159996 H -73.120003 -74.400002 -75.68"
       style="fill:none;stroke:#000000;stroke-width:1.28;stroke-linecap:round;stroke-linejoin:round;stroke-miterlimit:10;stroke-dasharray:none;stroke-opacity:1"
       transform="matrix(0.26458333,0,0,0.26458333,103.96002,24.299656)"
       clip-path="url(#clipPath14)" />
    <path
       id="path15"
       d="M 255.36,250.39999 H 444.32001"
       style="fill:none;stroke:#000000;stroke-width:1.28;stroke-linecap:round;stroke-linejoin:round;stroke-miterlimit:10;stroke-dasharray:none;stroke-opacity:1"
       clip-path="url(#clipPath16)"
       transform="matrix(0.26458333,0,0,0.26458333,-33.623308,-61.933345)" />
    <path
       id="path17"
       d="M 255.36,250.39999 H 179.67999"
       style="fill:none;stroke:#000000;stroke-width:1.28;stroke-linecap:round;stroke-linejoin:round;stroke-miterlimit:10;stroke-dasharray:none;stroke-opacity:1"
       clip-path="url(#clipPath18)"
       transform="matrix(0.26458333,0,0,0.26458333,-33.623308,-61.933345)" />
    <path
       id="path19"
       d="M 179.67999,250.39999 V 382.72"
       style="fill:none;stroke:#000000;stroke-width:1.28;stroke-linecap:round;stroke-linejoin:round;stroke-miterlimit:10;stroke-dasharray:none;stroke-opacity:1"
       clip-path="url(#clipPath20)"
       transform="matrix(0.26458333,0,0,0.26458333,-33.623308,-61.933345)" />
    <path
       id="path21"
       d="M 217.60001,344.79999 H 520"
       style="fill:none;stroke:#000000;stroke-width:1.28;stroke-linecap:round;stroke-linejoin:round;stroke-miterlimit:10;stroke-dasharray:none;stroke-opacity:1"
       clip-path="url(#clipPath22)"
       transform="matrix(0.26458333,0,0,0.26458333,-33.623308,-61.933345)" />
    <path
       id="path23"
       d="m 217.60001,288.16 v 56.63999"
       style="fill:none;stroke:#000000;stroke-width:1.28;stroke-linecap:round;stroke-linejoin:round;stroke-miterlimit:10;stroke-dasharray:none;stroke-opacity:1"
       clip-path="url(#clipPath24)"
       transform="matrix(0.26458333,0,0,0.26458333,-33.623308,-61.933345)" />
    <path
       id="path25"
       d="m 217.60001,288.16 h 226.72"
       style="fill:none;stroke:#000000;stroke-width:1.28;stroke-linecap:round;stroke-linejoin:round;stroke-miterlimit:10;stroke-dasharray:none;stroke-opacity:1"
       clip-path="url(#clipPath26)"
       transform="matrix(0.26458333,0,0,0.26458333,-33.623308,-61.933345)" />
    <path
       id="path27"
       d="m 293.12,779.52002 h 37.76"
       style="fill:none;stroke:#000000;stroke-width:1.28;stroke-linecap:round;stroke-linejoin:round;stroke-miterlimit:10;stroke-dasharray:none;stroke-opacity:1"
       clip-path="url(#clipPath28)"
       transform="matrix(0.26458333,0,0,0.26458333,-33.623308,-61.933345)" />
    <path
       id="path29"
       d="M 293.12,439.35999 H 444.32001"
       style="fill:none;stroke:#000000;stroke-width:1.28;stroke-linecap:round;stroke-linejoin:round;stroke-miterlimit:10;stroke-dasharray:none;stroke-opacity:1"
       clip-path="url(#clipPath30)"
       transform="matrix(0.26458333,0,0,0.26458333,-33.623308,-61.933345)" />
    <path
       id="path31"
       d="m 482.07999,325.92001 v 75.68"
       style="fill:none;stroke:#000000;stroke-width:1.28;stroke-linecap:round;stroke-linejoin:round;stroke-miterlimit:10;stroke-dasharray:none;stroke-opacity:1"
       clip-path="url(#clipPath32)"
       transform="matrix(0.26458333,0,0,0.26458333,-33.623308,-61.933345)" />
    <path
       id="path33"
       d="m 0,0 v -1.28 -1.28 l -0.16,-1.28 -0.16,-1.28 -0.16,-1.28 -0.32,-1.28 -0.16,-1.28 -0.32,-1.28 -0.48,-1.12 -0.32,-1.28 -0.48,-1.12 -0.48,-1.28 -0.64,-1.12 -0.48,-1.280001 L -4.8,-18.559999 -5.44,-19.68 -6.08,-20.639999 -6.88,-21.76 -7.68,-22.879999 -8.48,-23.84 -9.28,-24.799999 -10.08,-25.76 -11.04,-26.719999 -12,-27.52 -12.96,-28.48 -13.92,-29.280001 -14.88,-30.08 -16,-30.879999 -16.959999,-31.52 -18.08,-32.32 l -1.120001,-0.639999 -1.119999,-0.639999 -1.120001,-0.480004 -1.279998,-0.479999 -1.120001,-0.64 L -25.120001,-35.52 -26.24,-36 l -1.28,-0.32 -1.279999,-0.319999 -1.280001,-0.32 -1.280001,-0.32 -1.279998,-0.16 -1.279999,-0.159999 h -1.280003 l -1.279999,-0.16 h -1.279998"
       style="fill:none;stroke:#000000;stroke-width:1.28;stroke-linecap:round;stroke-linejoin:round;stroke-miterlimit:10;stroke-dasharray:none;stroke-opacity:1"
       transform="matrix(0.26458333,0,0,0.26458333,93.927015,24.299656)"
       clip-path="url(#clipPath34)" />
    <path
       id="path35"
       d="m 0,0 h 1.28 l 1.28,-0.16 h 1.28 l 1.28,-0.16 1.28,-0.32 1.28,-0.16 1.28,-0.32 1.28,-0.32 1.28,-0.32 1.12,-0.48 1.28,-0.48 1.12,-0.48 1.28,-0.48 1.120001,-0.64 L 18.559999,-4.8 19.68,-5.6 20.799999,-6.24 21.76,-6.88 22.879999,-7.68 23.84,-8.48 24.799999,-9.28 25.76,-10.24 26.719999,-11.04 27.68,-12 l 0.8,-0.96 0.800001,-0.96 L 30.08,-15.04 30.879999,-16 31.68,-17.120001 32.32,-18.24 32.959999,-19.360001 33.599998,-20.48 34.080002,-21.6 34.720001,-22.719999 35.200001,-24 35.68,-25.120001 36,-26.4 l 0.48,-1.28 0.319999,-1.119999 0.16,-1.280001 0.32,-1.280001 0.16,-1.279998 0.159999,-1.279999 0.16,-1.280003 V -36.48 -37.759998"
       style="fill:none;stroke:#000000;stroke-width:1.28;stroke-linecap:round;stroke-linejoin:round;stroke-miterlimit:10;stroke-dasharray:none;stroke-opacity:1"
       transform="matrix(0.26458333,0,0,0.26458333,83.936355,54.313982)"
       clip-path="url(#clipPath36)" />
    <path
       id="path37"
       d="M 179.67999,382.72 H 520"
       style="fill:none;stroke:#000000;stroke-width:1.28;stroke-linecap:round;stroke-linejoin:round;stroke-miterlimit:10;stroke-dasharray:none;stroke-opacity:1"
       clip-path="url(#clipPath38)"
       transform="matrix(0.26458333,0,0,0.26458333,-33.623308,-61.933345)" />
    <path
       id="path39"
       d="M 520,533.76001 H 387.67999"
       style="fill:none;stroke:#000000;stroke-width:1.28;stroke-linecap:round;stroke-linejoin:round;stroke-miterlimit:10;stroke-dasharray:none;stroke-opacity:1"
       clip-path="url(#clipPath40)"
       transform="matrix(0.26458333,0,0,0.26458333,-33.623308,-61.933345)" />
    <path
       id="path41"
       d="M 520,571.67999 H 387.67999"
       style="fill:none;stroke:#000000;stroke-width:1.28;stroke-linecap:round;stroke-linejoin:round;stroke-miterlimit:10;stroke-dasharray:none;stroke-opacity:1"
       clip-path="url(#clipPath42)"
       transform="matrix(0.26458333,0,0,0.26458333,-33.623308,-61.933345)" />
    <path
       id="path43"
       d="m 387.67999,533.76001 v 37.91998"
       style="fill:none;stroke:#000000;stroke-width:1.28;stroke-linecap:round;stroke-linejoin:round;stroke-miterlimit:10;stroke-dasharray:none;stroke-opacity:1"
       clip-path="url(#clipPath44)"
       transform="matrix(0.26458333,0,0,0.26458333,-33.623308,-61.933345)" />
    <path
       id="path45"
       d="m 0,0 v -53.919998 -78.400012 0 h 75.68 188.96001 v 0 l 14.71998,1.44001 14.24002,4.32 13.11999,6.88 11.35999,9.44 9.44,11.519999 7.04001,12.959999 4.16,14.240005 1.60001,14.719998 v 18.880001 h -37.92002 v -18.880001 0 l -1.75998,-11.680004 -5.44,-10.559998 -8.32001,-8.32 -10.55999,-5.279998 -11.68,-1.919999 v 0 H 37.919998 v 56.64 H 302.39999 V 0 Z"
       style="fill:#000000;fill-opacity:1;fill-rule:evenodd;stroke:none"
       transform="matrix(0.26458333,0,0,0.26458333,13.917022,39.327987)"
       clip-path="url(#clipPath46)" />
    <path
       id="path47"
       d="M 482.07999,382.72 V 358.88 344.79999 H 520 v 37.92001 0 z"
       style="fill:#000000;fill-opacity:1;fill-rule:evenodd;stroke:none"
       clip-path="url(#clipPath48)"
       transform="matrix(0.26458333,0,0,0.26458333,-33.623308,-61.933345)" />
    <path
       id="path49"
       d="M 0,0 H 1.28 2.56 3.84 L 5.12,-0.16 H 6.4 l 1.28,-0.16 1.28,-0.16 1.28,-0.16 1.12,-0.16 1.28,-0.16 1.28,-0.32 1.28,-0.16 1.28,-0.32 1.28,-0.32 L 19.040001,-2.4 20.16,-2.72 21.440001,-3.04 22.719999,-3.36 23.84,-3.84 25.120001,-4.32 26.24,-4.64 27.52,-5.12 28.639999,-5.6 29.92,-6.08 31.040001,-6.72 32.16,-7.2 33.439999,-7.68 34.560001,-8.32 35.68,-8.96 l 1.119999,-0.64 1.119999,-0.64 1.120003,-0.64 1.119999,-0.64 0.959999,-0.64 1.120003,-0.8 1.119999,-0.64 0.959999,-0.8 1.119999,-0.8 0.960003,-0.64 0.959999,-0.799999 L 48.48,-17.6 49.439999,-18.4 50.400002,-19.200001 51.360001,-20 52.16,-20.959999 53.119999,-21.92 54.080002,-22.719999 54.880001,-23.68 55.84,-24.639999 56.639999,-25.6 l 0.8,-0.959999 L 58.400002,-27.52 59.200001,-28.48 60,-29.6 l 0.639999,-0.959999 0.8,-1.120001 0.800003,-0.959999 0.639999,-1.119999 0.799999,-1.120003 0.64,-0.959999 0.639999,-1.119999 0.639999,-1.120003 0.64,-1.119999 L 66.879997,-40.32 67.360001,-41.439999 68,-42.720001 68.480003,-43.84 l 0.64,-1.119999 0.479995,-1.120003 0.480004,-1.279999 0.479996,-1.119999 0.480003,-1.279998 0.32,-1.120003 0.479995,-1.279999 0.320008,-1.279999 0.479995,-1.120002 0.32,-1.279999 0.32,-1.279999 0.319999,-1.280003 0.160004,-1.119998 0.32,-1.279999 0.159996,-1.280003 0.32,-1.279999 0.160003,-1.279998 0.159996,-1.279999 0.160004,-1.279999 0.159996,-1.280006 0.160004,-1.279999 v -1.279999 L 75.519997,-72.32 v -1.279998 -1.279999 -1.280007 -1.279998 -1.279999 L 75.360001,-80 v -1.279999 l -0.160004,-1.279999 -0.159996,-1.279998 -0.160004,-1.280007 -0.159996,-1.279999 -0.160003,-1.279998 -0.32,-1.279999 -0.159996,-1.279999 -0.32,-1.279999 -0.160004,-1.120002 -0.319999,-1.279999 -0.32,-1.279999 -0.32,-1.280006 -0.479995,-1.119995 -0.320008,-1.279999 -0.479995,-1.280003 -0.32,-1.12 -0.480003,-1.28 -0.479996,-1.12 -0.480004,-1.28 -0.479995,-1.12 -0.64,-1.12 L 68,-108.48 l -0.639999,-1.12 -0.480004,-1.12 -0.639999,-1.12 -0.64,-1.12 -0.639999,-1.12 -0.639999,-1.12 -0.64,-1.12 -0.799999,-0.96 -0.639999,-1.12 -0.800003,-0.96 -0.8,-1.12 L 60,-121.44 l -0.799999,-1.12 -0.799999,-0.96 -0.960003,-0.96 -0.8,-0.96 -0.799999,-0.96 -0.959999,-0.96 -0.799999,-0.96001 -0.960003,-0.95999 -0.959999,-0.8 -0.799999,-0.95999 -0.959999,-0.80001 -0.960003,-0.8 -0.959999,-0.96001 -1.119999,-0.79998 -0.959999,-0.80001 -0.960003,-0.64 -1.119999,-0.8 -0.959999,-0.8 -1.119999,-0.64 -1.120003,-0.8 -0.959999,-0.64 -1.119999,-0.64 -1.120003,-0.80001 -1.119999,-0.47999 -1.119999,-0.64 -1.119999,-0.64 -1.120002,-0.64 L 32.16,-143.84 31.040001,-144.48 29.92,-144.96001 28.639999,-145.44 27.52,-145.92 26.24,-146.39999 25.120001,-146.72 23.84,-147.2 22.719999,-147.67999 21.440001,-148 20.16,-148.32001 19.040001,-148.64 17.76,-148.96001 16.48,-149.28 l -1.28,-0.32001 -1.28,-0.15998 -1.28,-0.32001 -1.28,-0.16 -1.12,-0.15999 -1.28,-0.16001 -1.28,-0.16 -1.28,-0.16 H 5.12 l -1.28,-0.15999 H 2.56 1.28 0"
       style="fill:none;stroke:#000000;stroke-width:1.28;stroke-linecap:round;stroke-linejoin:round;stroke-miterlimit:10;stroke-dasharray:none;stroke-opacity:1"
       transform="matrix(0.26458333,0,0,0.26458333,103.96002,79.290652)"
       clip-path="url(#clipPath50)" />
    <path
       id="path51"
       d="m 520,571.67999 h 1.28003 l 1.27997,-0.15997 h 1.28003 1.27997 1.28002 l 1.27997,-0.16004 1.28003,-0.15997 h 1.27997 l 1.11999,-0.16003 1.28003,-0.15998 1.27997,-0.16003 1.28003,-0.15997 1.27997,-0.15998 1.28003,-0.16003 1.27997,-0.15997 1.28003,-0.32001 1.27997,-0.16003 1.28002,-0.31995 1.27997,-0.32001 1.12006,-0.16003 1.27997,-0.32001 1.28003,-0.32001 1.27997,-0.31994 1.11999,-0.32001 1.28003,-0.32001 1.27997,-0.48004 1.11999,-0.31995 1.28003,-0.48004 1.27997,-0.32 1.12,-0.47998 1.28002,-0.32001 1.12,-0.47998 1.28003,-0.47998 1.11999,-0.48005 1.27997,-0.47998 1.12,-0.47998 1.11999,-0.48004 1.28003,-0.63995 1.12,-0.48004 1.11999,-0.64002 1.12,-0.47998 1.11999,-0.64001 1.28003,-0.47998 1.12,-0.64002 1.11999,-0.63995 1.12,-0.64002 0.96002,-0.64001 1.11999,-0.64002 1.12,-0.64001 1.11999,-0.63995 1.12,-0.79999 0.95996,-0.64002 1.12006,-0.79998 1.11999,-0.64002 0.95996,-0.79999 1.12,-0.80004 0.96002,-0.63996 0.96002,-0.80005 1.12,-0.79999 0.95996,-0.79998 0.96002,-0.79999 0.96002,-0.79999 1.12,-0.80005 0.95996,-0.95996 0.96002,-0.79999 0.79999,-0.80004 0.96002,-0.95997 0.95996,-0.79998 0.96002,-0.96003 0.79999,-0.96002 0.96002,-0.79998 0.96002,-0.96003 0.79999,-0.95996 0.79999,-0.96002 0.96002,-0.95996 0.79999,-0.96002 0.79999,-0.96003 0.79998,-0.95996 0.79999,-0.96002 0.80005,-1.11999 0.79999,-0.96003 0.79999,-0.95996 0.79998,-1.11999 0.79999,-0.96002 0.64002,-1.12 0.79999,-0.96002 0.64001,-1.11999 0.79999,-1.12 0.64001,-1.12 0.64002,-0.96002 0.64001,-1.11999 0.79999,-1.12 0.64001,-1.11999 0.63996,-1.12 0.48004,-1.11999 0.63995,-1.12 0.64002,-1.12002 0.48004,-1.12 0.63995,-1.11999 0.48004,-1.28 0.63996,-1.12 0.48004,-1.11999 0.47998,-1.28 0.47998,-1.12 0.64002,-1.12002 0.47998,-1.28 0.32,-1.12 0.48004,-1.27999 0.47998,-1.12 0.32001,-1.28 0.47998,-1.28 0.32001,-1.11999 0.47998,-1.28 0.32001,-1.12 0.32001,-1.28 0.32,-1.28002 0.32001,-1.28 0.32001,-1.12 0.32,-1.28 0.31995,-1.28 0.32001,-1.27999 0.16003,-1.28 0.32001,-1.28 0.15997,-1.12 0.16004,-1.28 0.31994,-1.28 0.16004,-1.27999 0.15997,-1.28 0.16003,-1.28 0.15998,-1.28 v -1.28 l 0.16003,-1.28 0.15998,-1.28 v -1.28 -1.28002 l 0.16003,-1.28 v -1.28 -1.28 -1.28 -1.28 -1.28 -1.28 L 633.12,453.12 v -1.28 -1.28 l -0.15998,-1.28 -0.16003,-1.28 v -1.28 l -0.15998,-1.28 -0.16003,-1.28 -0.15997,-1.28 -0.16004,-1.27999 -0.31994,-1.28 -0.16004,-1.28 -0.15997,-1.12 -0.32001,-1.28 -0.16003,-1.28002 -0.32001,-1.28 -0.31995,-1.28 -0.32,-1.28 -0.32001,-1.12 -0.32001,-1.27999 -0.32,-1.28 -0.32001,-1.28 -0.32001,-1.12 -0.47998,-1.28 -0.32001,-1.28 -0.47998,-1.11999 -0.32001,-1.28 -0.47998,-1.12002 -0.48004,-1.28 -0.32,-1.12 -0.47998,-1.28 L 624.47998,414.56 624,413.44 l -0.47998,-1.28 -0.48004,-1.11999 -0.63996,-1.12 -0.48004,-1.28 -0.63995,-1.12002 -0.48004,-1.12 -0.64002,-1.11999 -0.63995,-1.12 -0.48004,-1.11999 -0.63996,-1.12 -0.64001,-1.12002 -0.79999,-1.12 -0.64001,-1.11999 -0.64002,-0.95999 -0.64001,-1.12 -0.79999,-1.12002 -0.64001,-1.12 -0.79999,-0.95999 -0.64002,-1.12 -0.79999,-0.95999 -0.79998,-1.12002 -0.79999,-0.95999 -0.79999,-0.96 -0.80005,-1.11999 -0.79999,-0.96002 L 606.56,385.12 605.76001,384.16 604.96002,383.20001 604,382.23999 603.20001,381.28 l -0.79999,-0.95999 -0.96002,-0.96002 -0.96002,-0.79999 -0.79999,-0.95999 -0.96002,-0.96 -0.95996,-0.80001 -0.96002,-0.96 L 596,374.07999 595.03998,373.28 l -0.95996,-0.95999 -1.12,-0.80002 L 592,370.72 l -0.96002,-0.79999 -0.95996,-0.80001 -1.12,-0.79999 L 588,367.51999 587.03998,366.88 l -1.12,-0.80001 -0.95996,-0.79999 -1.11999,-0.63999 -1.12006,-0.80001 -0.95996,-0.63999 -1.12,-0.80002 -1.11999,-0.63998 -1.12,-0.64001 -1.11999,-0.63999 -0.96002,-0.64001 -1.12,-0.63999 -1.11999,-0.64001 -1.12,-0.63999 -1.28003,-0.48001 -1.11999,-0.64001 -1.12,-0.63999 -1.11999,-0.48001 -1.12,-0.47998 -1.28003,-0.64001 -1.11999,-0.48001 -1.12,-0.47998 -1.27997,-0.48001 -1.11999,-0.47999 L 560,352.16 l -1.12,-0.48001 -1.28002,-0.32 -1.12,-0.47999 -1.27997,-0.48001 -1.28003,-0.32 -1.11999,-0.31998 -1.27997,-0.48001 -1.28003,-0.32001 -1.11999,-0.31998 -1.27997,-0.32 L 546.56,348 l -1.27997,-0.32001 -1.12006,-0.16 -1.27997,-0.31998 -1.28002,-0.32001 -1.27997,-0.16 -1.28003,-0.32001 -1.27997,-0.16 -1.28003,-0.16 -1.27997,-0.15998 -1.28003,-0.16 -1.27997,-0.16 -1.28003,-0.16001 -1.11999,-0.16 h -1.27997 l -1.28003,-0.16 -1.27997,-0.16001 H 525.12 523.84003 l -1.28003,-0.16 H 521.28003 520"
       style="fill:none;stroke:#000000;stroke-width:1.28;stroke-linecap:round;stroke-linejoin:round;stroke-miterlimit:10;stroke-dasharray:none;stroke-opacity:1"
       clip-path="url(#clipPath52)"
       transform="matrix(0.26458333,0,0,0.26458333,-33.623308,-61.933345)" />
    <path
       id="path53"
       d="m 0,0 2.24,-0.16 2.08,-0.16 2.08,-0.32 2.08,-0.32 2.08,-0.64 2.08,-0.64 2.08,-0.8 1.919999,-0.8 1.92,-1.12 1.760001,-0.96 1.92,-1.28 1.6,-1.28 1.600001,-1.44 v 0 l 1.6,-1.44 1.439999,-1.6 1.28,-1.6 1.280001,-1.6 1.119999,-1.76 1.119999,-1.92 0.960003,-1.76 0.799999,-1.92 0.639999,-1.920001 0.64,-2.079999 0.639999,-1.920001 0.32,-2.079999 0.319999,-2.079998 0.16,-2.080002 v -2.079998 0 -18.880001 0 H 75.68 v 0 18.880001 0 L 75.519997,-35.68 v 2.240001 l -0.159996,2.239998 -0.32,2.08 -0.160004,2.240002 -0.479995,2.24 -0.32,2.08 -0.480004,2.239999 -0.639999,2.08 -0.479996,2.08 -0.640007,2.08 -0.799995,2.08 -0.800003,2.08 -0.799996,2.08 -0.959999,1.92 -0.960006,2.08 -0.959999,1.92 L 65.440002,0 64.32,1.92 63.200001,3.68 61.919998,5.6 60.639999,7.36 59.360001,9.12 57.919998,10.72 56.48,12.48 55.040001,14.08 53.439999,15.68 51.84,17.120001 50.240002,18.719999 48.639999,20.16 46.880001,21.440001 45.119999,22.879999 43.360001,24.16 41.599998,25.280001 39.68,26.559999 37.759998,27.68 35.84,28.639999 33.919998,29.76 32,30.719999 29.92,31.52 28,32.48 l -2.08,0.799999 -2.08,0.639999 -2.08,0.640003 -2.24,0.64 L 17.440001,35.68 15.36,36.16 l -2.24,0.479999 -2.08,0.32 -2.24,0.32 -2.24,0.16 -2.08,0.159999 -2.24,0.16 H 0 v 0 H -113.44 V 340.16 v 0 h -37.76 v -302.400002 0 V 0 Z"
       style="fill:#000000;fill-opacity:1;fill-rule:evenodd;stroke:none"
       transform="matrix(0.26458333,0,0,0.26458333,83.936355,54.313982)"
       clip-path="url(#clipPath54)" />
    <path
       id="path55"
       d="m 0,0 v -17.280001 -20.639997 h 132.32001 v 0 l 7.35998,-0.320004 7.36,-1.119999 7.20001,-1.759998 6.87999,-2.560001 6.72001,-3.040001 6.4,-3.84 5.92,-4.48 5.59999,-4.959999 4.96001,-5.440002 4.31999,-6.079995 3.84001,-6.240005 3.2,-6.720001 2.56,-7.039994 1.75999,-7.200004 1.12001,-7.359999 0.32,-7.36 -0.32,-7.36 -1.12001,-7.36 -1.75999,-7.2 -2.56,-7.03999 -3.2,-6.72 -3.84001,-6.40001 -4.31999,-5.92 -4.96001,-5.44 -5.59999,-4.96 -5.92,-4.48001 -6.4,-3.83999 -6.72001,-3.2 -6.87999,-2.39999 -7.20001,-1.76001 -7.36,-1.12 -7.35998,-0.32001 v 0 -37.91999 0 l 7.35998,0.32 7.36,0.64 7.36,1.28 7.20002,1.60001 7.03999,2.23999 7.03999,2.56 6.72,3.04 6.56002,3.52001 6.23999,4 6.08,4.31999 5.75999,4.64 5.44001,5.11999 4.96,5.44001 4.8,5.76001 4.32,5.91999 3.83999,6.4 3.52001,6.56 3.04001,6.72 2.71998,6.88 2.08,7.2 1.76001,7.2 1.12,7.19999 0.8,7.52001 0.16001,7.36 -0.16001,7.36 -0.8,7.359999 -1.12,7.36 -1.76001,7.199997 -2.08,7.200005 -2.71998,6.879997 -3.04001,6.720001 -3.52001,6.560002 -3.83999,6.399997 -4.32,5.920002 -4.8,5.759999 -4.96,5.440002 -5.44001,5.119999 -5.75999,4.64 -6.08,4.319999 -6.23999,4.000001 -6.56002,3.52 -6.72,3.04 -7.03999,2.56 -7.03999,2.24 -7.20002,1.6 -7.36,1.28 -7.36,0.64 -7.35998,0.32 v 0 z"
       style="fill:#000000;fill-opacity:1;fill-rule:evenodd;stroke:none"
       transform="matrix(0.26458333,0,0,0.26458333,68.950355,89.323652)"
       clip-path="url(#clipPath56)" />
    <path
       id="path57"
       d="M 5.027025,155.99865 H 139.47768 v 23.79133 H 5.027025 Z"
       style="fill:#ffffff;fill-opacity:1;fill-rule:nonzero;stroke:none;stroke-width:0.264583" />
    <path
       id="path58"
       d="m 0,0 c 0,6.34 -1.15,12.02 -3.47,17.02 -2.31,5.020001 -5.23,8.859999 -8.76,11.520001 -2.65,2.019998 -5.560001,3.429998 -8.720001,4.209999 -3.16,0.799999 -6.91,1.18 -11.25,1.18 h -19.16 v -68 H -31.65 c 4.430001,0.01 8.25,0.48 11.459999,1.400002 C -16.969999,-31.73 -14.27,-30.42 -12.09,-28.719999 -8.33,-25.85 -5.38,-21.99 -3.23,-17.139999 -1.07,-12.28 0,-6.56 0,0 Z m -14.56,-0.11 c 0,-4.45 -0.65,-8.26 -1.95,-11.44 -1.299999,-3.16 -3.369999,-5.640001 -6.199999,-7.44 -1.440001,-0.870001 -2.910002,-1.469999 -4.410002,-1.790001 -1.5,-0.319999 -3.759998,-0.479999 -6.780001,-0.489999 h -3.539997 v 42.399999 h 3.539997 c 3.340003,0.01 5.790001,-0.179998 7.350003,-0.559999 1.559999,-0.369999 3.09,-1.06 4.569999,-2.07 2.56,-1.809999 4.430001,-4.24 5.63,-7.3 1.2,-3.04 1.79,-6.81 1.79,-11.31 z"
       style="fill:#000000;fill-opacity:1;fill-rule:nonzero;stroke:#000000;stroke-width:0.5;stroke-linecap:round;stroke-linejoin:round;stroke-miterlimit:10;stroke-dasharray:none;stroke-opacity:1"
       transform="matrix(0.26458333,0,0,0.26458333,18.489027,165.81733)"
       clip-path="url(#clipPath59)" />
    <path
       id="path60"
       d="m 0,0 h -29.92 c 0.200001,4.05 1.41,7.14 3.65,9.28 2.239999,2.14 5.53,3.21 9.87,3.2 2.76,0.01 5.44,-0.61 8.02,-1.87 2.59,-1.25 4.63,-2.6 6.13,-4.05 h 1.45 v 13.2 c -2.94,1.5 -5.72,2.58 -8.33,3.24 -2.6,0.67 -5.49,1 -8.650001,1 C -25.93,24 -32.18,21.700001 -36.52,17.07 c -4.340001,-4.62 -6.520001,-11.22 -6.520001,-19.78 0,-8.45 2.060001,-15.150001 6.18,-20.099999 C -32.740002,-27.75 -27.1,-30.23 -19.93,-30.24 c 6.62,0.01 11.6,2.119999 14.93,6.33 3.34,4.219999 5,10.27 5,18.17 z m -13.12,-9.6 c -0.07,-3.44 -0.74,-6.03 -2.02,-7.779999 C -16.41,-19.120001 -18.389999,-19.99 -21.09,-20 c -2.5,0.01 -4.549999,0.84 -6.16,2.48 -1.610001,1.66 -2.51,4.3 -2.709999,7.92 z"
       style="fill:#000000;fill-opacity:1;fill-rule:nonzero;stroke:#000000;stroke-width:0.5;stroke-linecap:round;stroke-linejoin:round;stroke-miterlimit:10;stroke-dasharray:none;stroke-opacity:1"
       transform="matrix(0.26458333,0,0,0.26458333,31.062024,168.82564)"
       clip-path="url(#clipPath61)" />
    <path
       id="path62"
       d="M 0,0 -15.76,51.200001 H -30.6 L -46.240002,0 h 13.880001 L -22.83,35.459999 -13.4,0 Z"
       style="fill:#000000;fill-opacity:1;fill-rule:nonzero;stroke:#000000;stroke-width:0.5;stroke-linecap:round;stroke-linejoin:round;stroke-miterlimit:10;stroke-dasharray:none;stroke-opacity:1"
       transform="matrix(0.26458333,0,0,0.26458333,43.677358,161.24799)"
       clip-path="url(#clipPath63)" />
    <path
       id="path64"
       d="m 0,0 h -29.92 c 0.200001,4.05 1.41,7.14 3.65,9.28 2.239999,2.14 5.53,3.21 9.87,3.2 2.76,0.01 5.44,-0.61 8.02,-1.87 2.59,-1.25 4.63,-2.6 6.13,-4.05 h 1.45 v 13.2 c -2.94,1.5 -5.72,2.58 -8.33,3.24 -2.6,0.67 -5.49,1 -8.650001,1 C -25.93,24 -32.18,21.700001 -36.52,17.07 c -4.340001,-4.62 -6.520001,-11.22 -6.520001,-19.78 0,-8.45 2.060001,-15.150001 6.18,-20.099999 C -32.740002,-27.75 -27.1,-30.23 -19.93,-30.24 c 6.62,0.01 11.6,2.119999 14.93,6.33 3.34,4.219999 5,10.27 5,18.17 z m -13.12,-9.6 c -0.07,-3.44 -0.74,-6.03 -2.02,-7.779999 C -16.41,-19.120001 -18.389999,-19.99 -21.09,-20 c -2.5,0.01 -4.549999,0.84 -6.16,2.48 -1.610001,1.66 -2.51,4.3 -2.709999,7.92 z"
       style="fill:#000000;fill-opacity:1;fill-rule:nonzero;stroke:#000000;stroke-width:0.5;stroke-linecap:round;stroke-linejoin:round;stroke-miterlimit:10;stroke-dasharray:none;stroke-opacity:1"
       transform="matrix(0.26458333,0,0,0.26458333,55.615357,168.82564)"
       clip-path="url(#clipPath65)" />
    <path
       id="path66"
       d="m 356.79999,894.71997 h -13.12 v -71.03998 h 13.12 z"
       style="fill:#000000;fill-opacity:1;fill-rule:nonzero;stroke:#000000;stroke-width:0.5;stroke-linecap:round;stroke-linejoin:round;stroke-miterlimit:10;stroke-dasharray:none;stroke-opacity:1"
       clip-path="url(#clipPath67)"
       transform="matrix(0.26458333,0,0,0.26458333,-33.623308,-61.933345)" />
    <path
       id="path68"
       d="m 0,0 c 0,8.43 -1.96,15.07 -5.88,19.91 -3.92,4.85 -9.43,7.26 -16.52,7.26 -7.09,0 -12.6,-2.41 -16.519998,-7.26 C -42.84,15.07 -44.799999,8.43 -44.799999,0 c 0,-8.48 1.979999,-15.13 5.919998,-19.969999 3.940002,-4.83 9.44,-7.25 16.480001,-7.260001 7.14,0.01 12.65,2.449999 16.55,7.31 C -1.95,-15.05 0,-8.41 0,0 Z m -16.15,12.39 c 0.85,-1.3 1.49,-2.86 1.91,-4.7 0.43,-1.82 0.64,-4.36 0.64,-7.6 0,-2.99 -0.21,-5.5 -0.65,-7.53 -0.44,-2.02 -1.05,-3.64 -1.83,-4.86 -0.77,-1.23 -1.700001,-2.11 -2.790001,-2.63 -1.089998,-0.51 -2.269998,-0.77 -3.529999,-0.78 -1.26,0.01 -2.380001,0.22 -3.36,0.64 -0.98,0.43 -1.930001,1.28 -2.83,2.54 -0.799999,1.19 -1.43,2.81 -1.9,4.86 -0.469999,2.06 -0.710001,4.65 -0.710001,7.76 0,2.79 0.210001,5.2 0.620001,7.24 0.41,2.05 1.01,3.69 1.81,4.92 0.78,1.19 1.710001,2.05 2.79,2.59 1.08,0.55 2.31,0.82 3.689999,0.81 1.190001,0.01 2.320002,-0.24 3.400002,-0.74 1.08,-0.49 1.989999,-1.33 2.739999,-2.52 z"
       style="fill:#000000;fill-opacity:1;fill-rule:nonzero;stroke:#000000;stroke-width:0.5;stroke-linecap:round;stroke-linejoin:round;stroke-miterlimit:10;stroke-dasharray:none;stroke-opacity:1"
       transform="matrix(0.26458333,0,0,0.26458333,74.326695,168.02926)"
       clip-path="url(#clipPath69)" />
    <path
       id="path70"
       d="m 0,0 c 0,4.25 -0.51,8.11 -1.55,11.58 -1.03,3.48 -2.39,6.34 -4.07,8.58 -1.74,2.389999 -3.72,4.19 -5.94,5.399999 -2.21,1.220002 -4.579999,1.82 -7.11,1.82 -2.33,0 -4.31,-0.309999 -5.940001,-0.929998 C -26.23,25.83 -27.9,24.959999 -29.6,23.83 v 21.309999 h -13.120001 v -69.92 H -29.6 v 5.34 c 2.02,-2 4.08,-3.649999 6.18,-4.969999 2.1,-1.299999 4.530001,-1.960001 7.27,-1.969999 5.1,0.01 9.07,2.359999 11.9,7.049999 C -1.41,-14.63 0,-8.19 0,0 Z m -13.6,0.38 c 0,-5 -0.67,-8.63 -2.03,-10.89 -1.36,-2.25 -3.499999,-3.38 -6.429999,-3.39 -1.230002,0.01 -2.5,0.25 -3.810002,0.72 C -27.17,-12.7 -28.42,-12.03 -29.6,-11.15 V 14.7 c 0.87,0.44 1.800001,0.71 2.790001,0.83 1,0.12 1.979999,0.18 2.939998,0.17 C -20.41,15.71 -17.83,14.44 -16.139999,11.89 -14.44,9.35 -13.6,5.51 -13.6,0.38 Z"
       style="fill:#000000;fill-opacity:1;fill-rule:nonzero;stroke:#000000;stroke-width:0.5;stroke-linecap:round;stroke-linejoin:round;stroke-miterlimit:10;stroke-dasharray:none;stroke-opacity:1"
       transform="matrix(0.26458333,0,0,0.26458333,87.111355,167.80435)"
       clip-path="url(#clipPath71)" />
    <path
       id="path72"
       d="M 0,0 V 36.450001 H -13.12 V 10.76 c 0,-2.49 -0.05,-4.62 -0.15,-6.38 -0.1,-1.75 -0.37,-3.18 -0.81,-4.29 -0.43,-1.09 -1.09,-1.89 -1.99,-2.4 -0.889999,-0.5 -2.139999,-0.75 -3.75,-0.76 -1.290001,0.01 -2.550001,0.34 -3.77,0.99 -1.219999,0.66 -2.31,1.36 -3.289999,2.08 V 36.450001 H -40 V -14.75 h 13.120001 v 5.5 c 2.259998,-2.22 4.42,-3.95 6.479999,-5.21 2.07,-1.25 4.350001,-1.88 6.85,-1.89 2.7,0.01 5.09,0.77 7.15,2.27 2.06,1.52 3.68,3.74 4.84,6.66 2.62,-2.77 5.17,-4.95 7.65,-6.54 2.48,-1.58 4.9,-2.38 7.28,-2.39 4.420001,0.01 7.769999,1.68 10.070001,5 2.299999,3.33 3.439998,8.12 3.439998,14.36 V 36.450001 H 13.76 V 10.76 C 13.76,8.24 13.72,6.1 13.63,4.36 13.55,2.62 13.28,1.2 12.84,0.09 12.43,-1 11.77,-1.8 10.87,-2.31 9.97,-2.81 8.7,-3.06 7.06,-3.07 5.96,-3.06 4.89,-2.82 3.84,-2.35 2.8,-1.87 1.52,-1.09 0,0 Z"
       style="fill:#000000;fill-opacity:1;fill-rule:nonzero;stroke:#000000;stroke-width:0.5;stroke-linecap:round;stroke-linejoin:round;stroke-miterlimit:10;stroke-dasharray:none;stroke-opacity:1"
       transform="matrix(0.26458333,0,0,0.26458333,99.176355,165.15059)"
       clip-path="url(#clipPath73)" />
    <path
       id="path74"
       d="m 0,0 h -29.92 c 0.200001,4.05 1.41,7.14 3.65,9.28 2.239999,2.14 5.53,3.21 9.87,3.2 2.76,0.01 5.44,-0.61 8.02,-1.87 2.59,-1.25 4.63,-2.6 6.13,-4.05 h 1.45 v 13.2 c -2.94,1.5 -5.72,2.58 -8.33,3.24 -2.6,0.67 -5.49,1 -8.650001,1 C -25.93,24 -32.18,21.700001 -36.52,17.07 c -4.340001,-4.62 -6.520001,-11.22 -6.520001,-19.78 0,-8.45 2.060001,-15.150001 6.18,-20.099999 C -32.740002,-27.75 -27.1,-30.23 -19.93,-30.24 c 6.62,0.01 11.6,2.119999 14.93,6.33 3.34,4.219999 5,10.27 5,18.17 z m -13.12,-9.6 c -0.07,-3.44 -0.74,-6.03 -2.02,-7.779999 C -16.41,-19.120001 -18.389999,-19.99 -21.09,-20 c -2.5,0.01 -4.549999,0.84 -6.16,2.48 -1.610001,1.66 -2.51,4.3 -2.709999,7.92 z"
       style="fill:#000000;fill-opacity:1;fill-rule:nonzero;stroke:#000000;stroke-width:0.5;stroke-linecap:round;stroke-linejoin:round;stroke-miterlimit:10;stroke-dasharray:none;stroke-opacity:1"
       transform="matrix(0.26458333,0,0,0.26458333,118.98835,168.82564)"
       clip-path="url(#clipPath75)" />
    <path
       id="path76"
       d="m 0,0 h -13.12 v -25.5 c 0,-2.07 -0.08,-4.139999 -0.25,-6.200001 -0.17,-2.059997 -0.46,-3.579998 -0.88,-4.559997 -0.48,-1.120003 -1.18,-1.950001 -2.110001,-2.470002 -0.93,-0.52 -2.229999,-0.779998 -3.909999,-0.79 -1.180001,0.01 -2.38,0.260002 -3.600001,0.740001 -1.219999,0.5 -2.539999,1.270001 -3.969999,2.329998 V 0 H -40.959999 V -51.200001 H -27.84 v 5.5 c 2.32,-2.279999 4.549999,-4.040001 6.69,-5.259998 2.14,-1.220001 4.510001,-1.830002 7.12,-1.84 4.4,0.01 7.84,1.630001 10.32,4.86 2.48,3.239998 3.71,8.07 3.71,14.5 z"
       style="fill:#000000;fill-opacity:1;fill-rule:nonzero;stroke:#000000;stroke-width:0.5;stroke-linecap:round;stroke-linejoin:round;stroke-miterlimit:10;stroke-dasharray:none;stroke-opacity:1"
       transform="matrix(0.26458333,0,0,0.26458333,131.56135,174.79464)"
       clip-path="url(#clipPath77)" />
    <path
       id="path78"
       d="m 0,0 c -1.41,0.46 -2.91,0.81 -4.49,1.07 -1.58,0.26 -3.52,0.39 -5.81,0.39 -5.1,0 -8.900001,-1.27 -11.400001,-3.85 -2.49,-2.57 -3.74,-6.98 -3.74,-13.24 V -39.5 h -5.439998 v -11.200001 h 5.439998 V -65.419998 H -12.32 v 14.719997 H 0 V -39.5 h -12.32 v 18.059999 c 0,1.800002 0.02,3.360001 0.04,4.680001 0.02,1.34 0.22,2.53 0.58,3.58 0.34,1.06 0.95,1.9 1.81,2.52 0.87,0.62 2.13,0.93 3.78,0.92 0.68,0.01 1.58,-0.18 2.69,-0.56 1.11,-0.37 1.88,-0.72 2.32,-1.04 H 0 Z"
       style="fill:#000000;fill-opacity:1;fill-rule:nonzero;stroke:#000000;stroke-width:0.5;stroke-linecap:round;stroke-linejoin:round;stroke-miterlimit:10;stroke-dasharray:none;stroke-opacity:1"
       transform="matrix(0.26458333,0,0,0.26458333,140.66301,174.66235)"
       clip-path="url(#clipPath79)" />
  </g>
</svg>
